<?xml version="1.0" encoding="utf-8"?>
<!-- Generator: Adobe Illustrator 19.0.0, SVG Export Plug-In . SVG Version: 6.00 Build 0)  -->
<svg version="1.1" id="Layer_1" xmlns="http://www.w3.org/2000/svg" xmlns:xlink="http://www.w3.org/1999/xlink" x="0px" y="0px"
	 viewBox="0 0 500 500" style="enable-background:new 0 0 500 500;" xml:space="preserve">
<style type="text/css">
	.st0{fill:#00C0F3;}
	.st1{fill:#FFFFFF;}
</style>
<g id="XMLID_1_">
	<polygon id="XMLID_3_" class="st0" points="432.5,210.6 406.6,210.6 406.6,237.3 378.9,237.3 378.9,210.6 352.8,210.6 352.8,289.4 
		378.9,289.4 378.9,262.1 406.6,262.1 406.6,289.4 432.5,289.4 	"/>
	<path id="XMLID_4_" class="st0" d="M314.3,272.5c15.1,0,13.4-16.1,13.4-19.6v-42.3h-27.5v42.3C300.2,252.9,298.9,272.5,314.3,272.5
		"/>
	<path id="XMLID_5_" class="st0" d="M275.4,260.7v-50.1H67.5v78.7h220.1C283.6,287.9,275.4,282.2,275.4,260.7"/>
	<path id="XMLID_39_" class="st1" d="M249.4,262.8v0.3c0,3,2,4,3.7,4c1.5,0,2.4-0.5,2.4-0.5l0.5,1.5c0,0-1.2,0.7-3.6,0.7
		c-2.6,0-5.7-1-5.7-5.8c0-2,0.8-5.8,5.2-5.8c2,0,3.2,0.7,3.9,1.9c0.6,0.9,0.7,2.3,0.7,3.6v0.2H249.4L249.4,262.8z M253.8,261
		c0-1.8-0.6-2.6-2.1-2.6c-1.1,0-1.8,0.5-2.1,1.7c-0.1,0.6-0.1,1.3-0.1,1.3h4.4V261L253.8,261z M245.7,259.6
		c-0.3-0.2-0.8-0.5-1.8-0.5c-1,0-1.7,0.4-1.7,0.4v9h-2.5v-11.2h2.4v1.5c0,0,1-1.7,2.7-1.7c0.8,0,1.2,0.2,1.5,0.3L245.7,259.6z
		 M234.3,268.5h2.6v-11.2h-2.6V268.5z M229,268.5v-6.1c0-0.7,0-1.4-0.1-1.9c-0.3-1.2-1.1-1.8-2.4-1.8c-1.1,0-1.9,0.4-1.9,0.4v9.3
		H222v-16h2.5v5.9c0,0,1-1.3,3.3-1.3c2.3,0,3.2,1.3,3.5,2.5c0.1,0.8,0.1,1.7,0.1,2.2v6.8H229L229,268.5z M216,268.6
		c-2.4,0-3.6-0.6-3.6-0.6l0.6-1.5c0,0,0.9,0.6,2.7,0.6c1.4,0,2.1-0.6,2.1-1.6c0-0.7-0.4-0.9-1.1-1.4l-1.7-1c-1.4-0.7-2.2-1.6-2.2-3
		c0-2.2,1.6-3.1,3.9-3.1c2.1,0,3.2,0.6,3.2,0.6l-0.6,1.5c0,0-0.9-0.5-2.4-0.5c-0.8,0-1.8,0.2-1.8,1.2c0,0.7,0.4,1,1.4,1.6l1.6,0.8
		c1.3,0.7,2,1.6,2,2.9C220.1,268,217.9,268.6,216,268.6 M208.2,268.5v-1.1c0,0-0.9,1.2-3.1,1.2c-2.7,0-4.7-1.9-4.7-5.5
		c0-3.6,2.3-6,5.4-6c1.6,0,2.3,0.5,2.3,0.5v-5.1h2.6v16H208.2L208.2,268.5z M208.1,258.7c0,0-0.5-0.2-1.4-0.2
		c-2.5,0-3.5,1.7-3.5,4.4c0,2.5,1.1,4.1,3.1,4.1c1.1,0,1.8-0.4,1.8-0.4V258.7L208.1,258.7z M199.4,259.6c-0.3-0.2-0.8-0.5-1.8-0.5
		c-1,0-1.7,0.4-1.7,0.4v9h-2.6v-11.2h2.5v1.5c0,0,0.9-1.7,2.7-1.7c0.7,0,1.1,0.2,1.5,0.3L199.4,259.6z M185.7,268.7
		c-3.4,0-5.4-2.2-5.4-5.6c0-2.7,1.3-6,5.6-6c3.3,0,5.3,2.2,5.3,5.7C191.2,265.5,189.9,268.7,185.7,268.7 M185.7,258.5
		c-1.9,0-2.6,1.6-2.6,4.4c0,2.6,0.7,4.4,2.7,4.4c1.9,0,2.6-1.6,2.6-4.4C188.4,260.3,187.7,258.5,185.7,258.5 M180.7,254.3
		c0,0-0.5-0.3-1.3-0.3c-0.8,0-1.2,0.3-1.4,0.8c-0.3,0.4-0.3,0.9-0.3,2v0.6h2.4v1.4h-2.4v9.8h-2.5v-9.8h-2.5v-1.4h2.5v-0.7
		c0-0.6,0-0.9,0.2-1.8c0.5-1.6,1.6-2.4,3.6-2.4c1.4,0,2.1,0.4,2.1,0.4L180.7,254.3z M171.2,268.6c-1.7,0-2.7-0.4-3.2-1.8
		c-0.1-0.5-0.2-1.5-0.2-2.3v-5.8h-1.4v-1.1l0.2-0.1c1.2-0.3,2-1.4,2.2-2.6v-0.2h1.6v2.7h3.4v1.4h-3.4v6.1c0,1.1,0.2,2.2,1.7,2.2
		c0.8,0,1.3-0.3,1.3-0.3l0.5,1.5C173.8,268.2,172.8,268.6,171.2,268.6 M165.2,259.6c-0.2-0.2-0.8-0.5-1.7-0.5
		c-1.1,0-1.7,0.4-1.7,0.4v9h-2.6v-11.2h2.5v1.5c0,0,0.9-1.7,2.6-1.7c0.8,0,1.2,0.2,1.5,0.3L165.2,259.6z M149.8,262.8v0.3
		c0,3,1.9,4,3.7,4c1.5,0,2.3-0.5,2.3-0.5l0.5,1.5c0,0-1.2,0.7-3.5,0.7c-2.7,0-5.7-1-5.7-5.8c0-2,0.7-5.8,5.2-5.8
		c2,0,3.1,0.7,3.9,1.9c0.5,0.9,0.7,2.3,0.7,3.6v0.2L149.8,262.8L149.8,262.8z M154.2,261c0-1.8-0.7-2.6-2.2-2.6
		c-1.1,0-1.7,0.5-2,1.7c-0.2,0.6-0.2,1.3-0.2,1.3h4.5V261L154.2,261z M142.3,268.5v-7.2h-6.9v7.2h-2.6V253h2.6v6.5h6.9V253h2.6v15.5
		H142.3z M245.7,231.6c0,0-0.6-0.3-1.4-0.3c-0.8,0-1.2,0.2-1.6,0.6c-0.3,0.4-0.4,1-0.5,2.2l-0.2,1.4h2.4l-0.2,1.4l-2.4,0.1
		l-1.4,10.9c-0.2,1.1-0.5,2.5-1.5,3.2c-0.7,0.4-1.6,0.5-2.5,0.5c-0.8,0-1.3-0.1-1.5-0.2l0.4-1.6c0,0,0.4,0.2,0.9,0.2
		c0.9,0,1.6-0.2,1.8-2.1l1.5-11h-1.5l0.1-1.5h1.6v-0.7c0.1-1,0.3-2.3,0.6-3.1c0.3-0.7,1.1-2,3.6-1.9c1.4,0,2.2,0.4,2.2,0.4
		L245.7,231.6L245.7,231.6z M231.3,246.9c-2.5,0-4.4-1.1-4.4-4.9c0-2.7,1.3-6.8,5.3-6.8c2.5,0,4.5,1.1,4.5,4.9
		C236.5,242.8,235.2,246.9,231.3,246.9 M232.1,236.8c-0.9,0-1.5,0.4-2,1.5c-0.7,1.5-0.8,3.3-0.8,4.3c0,2.6,1.1,2.9,2,2.9
		c0.9,0,1.6-0.5,2-1.6c0.7-1.4,0.8-3.2,0.8-4.2C234.1,237.1,233,236.8,232.1,236.8 M219.4,248.9c-0.7,2-1.8,2.8-3.5,2.8
		c-1.1,0-1.6-0.3-1.6-0.3l0.4-1.6c0,0,0.5,0.3,1,0.3c1,0,1.4-0.5,1.9-1.8l0.4-1.4l-4.4-11.5h2.8l2.3,7.5c0.3,0.9,0.4,1.4,0.4,1.4
		l2.7-8.8h2.2L219.4,248.9L219.4,248.9z M211.4,246.8c-1.7,0-2.8-0.4-3.2-1.8c-0.2-0.5-0.2-1.5-0.2-2.3v-5.8h-1.5v-1.1l0.3-0.1
		c1.2-0.3,2-1.3,2.1-2.6v-0.2h1.6v2.7h3.5l1,1.3h-4.6v6.1c0,1.2,0.2,2.2,1.7,2.2c0.8,0,1.4-0.3,1.4-0.3l0.4,1.5
		C213.8,246.4,212.9,246.8,211.4,246.8 M203.7,233.7c-0.9,0-1.6-0.6-1.6-1.5c0-0.9,0.6-1.5,1.6-1.5c0.9,0,1.5,0.5,1.5,1.3
		C205.2,233.1,204.6,233.7,203.7,233.7 M202.4,235.5h2.6v11.2h-2.6V235.5z M196.3,246.8c-2.4,0-3.6-0.6-3.6-0.6l0.6-1.5
		c0,0,0.9,0.6,2.7,0.6c1.4,0,2.1-0.6,2.1-1.6c0-0.7-0.4-0.9-1.1-1.4l-1.7-1c-1.4-0.7-2.2-1.6-2.2-3c0-2.2,1.6-3.1,4-3.1
		c2.1,0,3.2,0.6,3.2,0.6l-0.5,1.5c0,0-1-0.5-2.4-0.5c-0.9,0-1.9,0.2-1.9,1.2c0,0.7,0.5,1,1.4,1.6l1.6,0.8c1.3,0.7,2,1.6,2,2.9
		C200.5,246.2,198.3,246.8,196.3,246.8 M192.1,237.7c-0.2-0.2-0.7-0.5-1.7-0.5c-1,0-1.7,0.4-1.7,0.4v9H186v-11.2h2.5v1.5
		c0,0,0.9-1.7,2.7-1.7c0.7,0,1.1,0.2,1.4,0.3L192.1,237.7L192.1,237.7z M177,241v0.3c0,3,1.9,3.9,3.7,3.9c1.5,0,2.3-0.5,2.3-0.5
		l0.5,1.5c0,0-1.1,0.7-3.5,0.7c-2.7,0-5.7-1-5.7-5.8c0-2,0.8-5.8,5.2-5.8c2,0,3.1,0.7,3.8,1.9c0.5,0.9,0.7,2.3,0.7,3.6v0.2L177,241
		L177,241z M181.5,239.2c0-1.8-0.7-2.6-2.1-2.6c-1.2,0-1.8,0.5-2.1,1.7c-0.2,0.6-0.2,1.4-0.2,1.4h4.5L181.5,239.2L181.5,239.2z
		 M169.5,246.7h-2.1l-4.2-11.2h2.8l2.3,7.4c0.3,0.8,0.3,1.4,0.3,1.4s0.2-0.6,0.5-1.5l2.3-7.3h2.3L169.5,246.7L169.5,246.7z
		 M160.7,233.7c-0.8,0-1.5-0.6-1.5-1.5c0-0.9,0.6-1.5,1.6-1.5c0.9,0,1.5,0.5,1.5,1.3C162.3,233.1,161.7,233.7,160.7,233.7
		 M159.5,235.5h2.6v11.2h-2.6V235.5z M154.2,246.7v-6.1c0-0.7,0-1.4-0.1-1.9c-0.3-1.2-1.1-1.8-2.4-1.8c-1.1,0-1.8,0.4-1.8,0.4v9.4
		h-2.6v-11.2h2.5v1.1c0,0,1-1.4,3.3-1.4c2.3,0,3.2,1.4,3.5,2.5c0.1,0.8,0.1,1.7,0.1,2.2v6.8H154.2L154.2,246.7z M144.1,243.7
		c-0.7,1.7-1.8,3.2-5.5,3.2c-3.1,0-4.7-1.1-5.4-2.6c-0.6-1-0.7-2.6-0.7-4.6v-8.5h2.7v9.9c0,0.7,0,1.6,0.1,2c0.4,1.5,1.5,2.2,3.3,2.2
		c1.9,0,3-0.7,3.3-2.3c0.1-0.4,0.2-1.2,0.2-2v-9.8h2.2v8.4C144.5,242.1,144.3,243.2,144.1,243.7"/>
</g>
</svg>
